<svg xmlns="http://www.w3.org/2000/svg" viewBox="0 0 600 380" width="600" height="380">
  <rect width="600" height="380" rx="12" fill="#0d1117"/>
  <!-- Grid lines -->
  <line x1="60" y1="40" x2="60" y2="300" stroke="#1e3a5f" stroke-width="1"/>
  <line x1="60" y1="300" x2="560" y2="300" stroke="#1e3a5f" stroke-width="1"/>
  <line x1="60" y1="240" x2="560" y2="240" stroke="#1e3a5f" stroke-width="0.5" stroke-dasharray="4,4"/>
  <line x1="60" y1="180" x2="560" y2="180" stroke="#1e3a5f" stroke-width="0.5" stroke-dasharray="4,4"/>
  <line x1="60" y1="120" x2="560" y2="120" stroke="#1e3a5f" stroke-width="0.5" stroke-dasharray="4,4"/>
  <line x1="60" y1="60" x2="560" y2="60" stroke="#1e3a5f" stroke-width="0.5" stroke-dasharray="4,4"/>
  <!-- Bars -->
  <rect x="90" y="140" width="50" height="160" rx="4" fill="#14b8a6" opacity="0.85"/>
  <rect x="170" y="100" width="50" height="200" rx="4" fill="#0ea5e9" opacity="0.85"/>
  <rect x="250" y="160" width="50" height="140" rx="4" fill="#14b8a6" opacity="0.85"/>
  <rect x="330" y="80" width="50" height="220" rx="4" fill="#0ea5e9" opacity="0.85"/>
  <rect x="410" y="120" width="50" height="180" rx="4" fill="#14b8a6" opacity="0.85"/>
  <rect x="490" y="60" width="50" height="240" rx="4" fill="#0ea5e9" opacity="0.85"/>
  <!-- Line chart overlay -->
  <polyline points="115,140 195,100 275,160 355,80 435,120 515,60" fill="none" stroke="#f59e0b" stroke-width="2.5" stroke-linejoin="round"/>
  <circle cx="115" cy="140" r="4" fill="#f59e0b"/>
  <circle cx="195" cy="100" r="4" fill="#f59e0b"/>
  <circle cx="275" cy="160" r="4" fill="#f59e0b"/>
  <circle cx="355" cy="80" r="4" fill="#f59e0b"/>
  <circle cx="435" cy="120" r="4" fill="#f59e0b"/>
  <circle cx="515" cy="60" r="4" fill="#f59e0b"/>
  <!-- Labels -->
  <text x="115" y="320" text-anchor="middle" fill="#64748b" font-size="11" font-family="monospace">Rohit</text>
  <text x="195" y="320" text-anchor="middle" fill="#64748b" font-size="11" font-family="monospace">Virat</text>
  <text x="275" y="320" text-anchor="middle" fill="#64748b" font-size="11" font-family="monospace">Gill</text>
  <text x="355" y="320" text-anchor="middle" fill="#64748b" font-size="11" font-family="monospace">Bumrah</text>
  <text x="435" y="320" text-anchor="middle" fill="#64748b" font-size="11" font-family="monospace">Jadeja</text>
  <text x="515" y="320" text-anchor="middle" fill="#64748b" font-size="11" font-family="monospace">Siraj</text>
  <!-- Title -->
  <text x="300" y="355" text-anchor="middle" fill="#94a3b8" font-size="13" font-family="monospace">Cricket Player Performance · Power BI</text>
  <!-- Badge -->
  <rect x="20" y="14" width="130" height="22" rx="4" fill="#14b8a6" opacity="0.15"/>
  <text x="85" y="29" text-anchor="middle" fill="#14b8a6" font-size="11" font-family="monospace">Data Analytics</text>
</svg>
