<svg xmlns="http://www.w3.org/2000/svg" viewBox="0 0 600 380" width="600" height="380">
  <rect width="600" height="380" rx="12" fill="#0d1117"/>
  <!-- CV document -->
  <rect x="30" y="40" width="160" height="210" rx="6" fill="#0f2027" stroke="#1e3a5f" stroke-width="1"/>
  <rect x="50" y="60" width="80" height="10" rx="2" fill="#14b8a6" opacity="0.7"/>
  <rect x="50" y="78" width="120" height="6" rx="2" fill="#334155"/>
  <rect x="50" y="92" width="100" height="6" rx="2" fill="#334155"/>
  <rect x="50" y="115" width="60" height="6" rx="2" fill="#64748b"/>
  <rect x="50" y="129" width="120" height="4" rx="2" fill="#1e293b"/>
  <rect x="50" y="139" width="110" height="4" rx="2" fill="#1e293b"/>
  <rect x="50" y="149" width="115" height="4" rx="2" fill="#1e293b"/>
  <rect x="50" y="168" width="60" height="6" rx="2" fill="#64748b"/>
  <rect x="50" y="182" width="120" height="4" rx="2" fill="#1e293b"/>
  <rect x="50" y="192" width="105" height="4" rx="2" fill="#1e293b"/>
  <rect x="50" y="215" width="60" height="6" rx="2" fill="#64748b"/>
  <rect x="50" y="229" width="120" height="4" rx="2" fill="#1e293b"/>
  <!-- Arrow / processing -->
  <text x="215" y="155" text-anchor="middle" fill="#14b8a6" font-size="28" font-family="monospace">→</text>
  <!-- AI Brain box -->
  <rect x="240" y="60" width="140" height="130" rx="8" fill="#0f2027" stroke="#14b8a6" stroke-width="1.5"/>
  <text x="310" y="90" text-anchor="middle" fill="#14b8a6" font-size="11" font-family="monospace">AI ENGINE</text>
  <text x="310" y="112" text-anchor="middle" fill="#64748b" font-size="10" font-family="monospace">TF-IDF</text>
  <text x="310" y="128" text-anchor="middle" fill="#64748b" font-size="10" font-family="monospace">Cosine Similarity</text>
  <text x="310" y="144" text-anchor="middle" fill="#64748b" font-size="10" font-family="monospace">NLP Pipeline</text>
  <text x="310" y="160" text-anchor="middle" fill="#64748b" font-size="10" font-family="monospace">Scikit-learn</text>
  <!-- Score bars -->
  <rect x="400" y="60" width="175" height="210" rx="8" fill="#0f2027"/>
  <text x="487" y="82" text-anchor="middle" fill="#94a3b8" font-size="11" font-family="monospace">Match Scores</text>
  <text x="415" y="105" fill="#e2e8f0" font-size="10" font-family="monospace">Candidate A</text>
  <rect x="415" y="112" width="140" height="10" rx="3" fill="#1e293b"/>
  <rect x="415" y="112" width="126" height="10" rx="3" fill="#14b8a6"/>
  <text x="560" y="121" fill="#14b8a6" font-size="9" font-family="monospace">90%</text>
  <text x="415" y="140" fill="#e2e8f0" font-size="10" font-family="monospace">Candidate B</text>
  <rect x="415" y="147" width="140" height="10" rx="3" fill="#1e293b"/>
  <rect x="415" y="147" width="98" height="10" rx="3" fill="#0ea5e9"/>
  <text x="560" y="156" fill="#0ea5e9" font-size="9" font-family="monospace">70%</text>
  <text x="415" y="175" fill="#e2e8f0" font-size="10" font-family="monospace">Candidate C</text>
  <rect x="415" y="182" width="140" height="10" rx="3" fill="#1e293b"/>
  <rect x="415" y="182" width="70" height="10" rx="3" fill="#f59e0b"/>
  <text x="560" y="191" fill="#f59e0b" font-size="9" font-family="monospace">50%</text>
  <text x="415" y="210" fill="#e2e8f0" font-size="10" font-family="monospace">Candidate D</text>
  <rect x="415" y="217" width="140" height="10" rx="3" fill="#1e293b"/>
  <rect x="415" y="217" width="42" height="10" rx="3" fill="#ef4444"/>
  <text x="560" y="226" fill="#ef4444" font-size="9" font-family="monospace">30%</text>
  <!-- Footer -->
  <text x="300" y="355" text-anchor="middle" fill="#94a3b8" font-size="13" font-family="monospace">Smart CV Analyzer · NLP + TF-IDF + Cosine Similarity</text>
</svg>
